name rise30.8019peak61.5557fall86.2505.mot
datacolumns 19
datarows 36
range 15.06994300000000 15.12827900000000
endheader
time	ground_force1_vx	ground_force1_vy	ground_force1_vz	ground_force1_px	ground_force1_py	ground_force1_pz	ground_force2_vx	ground_force2_vy	ground_force2_vz	ground_force2_px	ground_force2_py	ground_force2_pz	ground_torque1_x	ground_torque1_y	ground_torque1_z	ground_torque2_x	ground_torque2_y	ground_torque2_z	
15.06994300000000	48.46952400000000	764.86236199999996	42.50399900000000	0.21228200000000	0.00000000000000	0.10249600000000	0.00000000000000	0.00000000000000	0.00000000000000	0.00000000000000	0.00000000000000	0.00000000000000	0.00000000000000	8.39695400000000	0.00000000000000	0.00000000000000	0.00000000000000	0.00000000000000	
15.07161500000000	47.75798400000000	765.68048499999998	42.57093300000000	0.21127000000000	0.00000000000000	0.10253300000000	0.00000000000000	0.00000000000000	0.00000000000000	0.00000000000000	0.00000000000000	0.00000000000000	0.00000000000000	8.46186600000000	0.00000000000000	0.00000000000000	0.00000000000000	0.00000000000000	
15.07329100000000	47.04464600000000	766.34331299999997	42.63607800000000	0.21024600000000	0.00000000000000	0.10257300000000	0.00000000000000	0.00000000000000	0.00000000000000	0.00000000000000	0.00000000000000	0.00000000000000	0.00000000000000	8.52673200000000	0.00000000000000	0.00000000000000	0.00000000000000	0.00000000000000	
15.07494900000000	46.32995300000000	766.85277900000006	42.69903600000000	0.20921000000000	0.00000000000000	0.10261400000000	0.00000000000000	0.00000000000000	0.00000000000000	0.00000000000000	0.00000000000000	0.00000000000000	0.00000000000000	8.59136800000000	0.00000000000000	0.00000000000000	0.00000000000000	0.00000000000000	
15.07661700000000	45.61434200000000	767.21105699999998	42.75938100000000	0.20816000000000	0.00000000000000	0.10265600000000	0.00000000000000	0.00000000000000	0.00000000000000	0.00000000000000	0.00000000000000	0.00000000000000	0.00000000000000	8.65557900000000	0.00000000000000	0.00000000000000	0.00000000000000	0.00000000000000	
15.07827800000000	44.89824000000000	767.42055700000003	42.81666600000000	0.20709800000000	0.00000000000000	0.10270100000000	0.00000000000000	0.00000000000000	0.00000000000000	0.00000000000000	0.00000000000000	0.00000000000000	0.00000000000000	8.71916400000000	0.00000000000000	0.00000000000000	0.00000000000000	0.00000000000000	
15.07994600000000	44.18206700000000	767.48392200000001	42.87042700000000	0.20602100000000	0.00000000000000	0.10274700000000	0.00000000000000	0.00000000000000	0.00000000000000	0.00000000000000	0.00000000000000	0.00000000000000	0.00000000000000	8.78192200000000	0.00000000000000	0.00000000000000	0.00000000000000	0.00000000000000	
15.08161400000000	43.46623900000000	767.40401999999995	42.92018600000000	0.20493100000000	0.00000000000000	0.10279500000000	0.00000000000000	0.00000000000000	0.00000000000000	0.00000000000000	0.00000000000000	0.00000000000000	0.00000000000000	8.84364400000000	0.00000000000000	0.00000000000000	0.00000000000000	0.00000000000000	
15.08327800000000	42.75116900000000	767.18394100000000	42.96545800000000	0.20382800000000	0.00000000000000	0.10284400000000	0.00000000000000	0.00000000000000	0.00000000000000	0.00000000000000	0.00000000000000	0.00000000000000	0.00000000000000	8.90412500000000	0.00000000000000	0.00000000000000	0.00000000000000	0.00000000000000	
15.08494500000000	42.03726500000000	766.82698600000003	43.00575200000000	0.20271000000000	0.00000000000000	0.10289400000000	0.00000000000000	0.00000000000000	0.00000000000000	0.00000000000000	0.00000000000000	0.00000000000000	0.00000000000000	8.96315800000000	0.00000000000000	0.00000000000000	0.00000000000000	0.00000000000000	
15.08660900000000	41.32493700000000	766.33666100000005	43.04058200000000	0.20157900000000	0.00000000000000	0.10294600000000	0.00000000000000	0.00000000000000	0.00000000000000	0.00000000000000	0.00000000000000	0.00000000000000	0.00000000000000	9.02054000000000	0.00000000000000	0.00000000000000	0.00000000000000	0.00000000000000	
15.08827500000000	40.61459400000000	765.71666800000003	43.06946700000000	0.20043500000000	0.00000000000000	0.10299800000000	0.00000000000000	0.00000000000000	0.00000000000000	0.00000000000000	0.00000000000000	0.00000000000000	0.00000000000000	9.07607200000000	0.00000000000000	0.00000000000000	0.00000000000000	0.00000000000000	
15.08994200000000	39.90664500000000	764.97089800000003	43.09193400000000	0.19927700000000	0.00000000000000	0.10305200000000	0.00000000000000	0.00000000000000	0.00000000000000	0.00000000000000	0.00000000000000	0.00000000000000	0.00000000000000	9.12956100000000	0.00000000000000	0.00000000000000	0.00000000000000	0.00000000000000	
15.09161000000000	39.20150100000000	764.10341600000004	43.10752900000000	0.19810700000000	0.00000000000000	0.10310700000000	0.00000000000000	0.00000000000000	0.00000000000000	0.00000000000000	0.00000000000000	0.00000000000000	0.00000000000000	9.18082000000000	0.00000000000000	0.00000000000000	0.00000000000000	0.00000000000000	
15.09327500000000	38.49957400000000	763.11845800000003	43.11581200000000	0.19692500000000	0.00000000000000	0.10316300000000	0.00000000000000	0.00000000000000	0.00000000000000	0.00000000000000	0.00000000000000	0.00000000000000	0.00000000000000	9.22967100000000	0.00000000000000	0.00000000000000	0.00000000000000	0.00000000000000	
15.09494100000000	37.80127800000000	762.02041399999996	43.11637100000000	0.19573200000000	0.00000000000000	0.10321900000000	0.00000000000000	0.00000000000000	0.00000000000000	0.00000000000000	0.00000000000000	0.00000000000000	0.00000000000000	9.27594700000000	0.00000000000000	0.00000000000000	0.00000000000000	0.00000000000000	
15.09661200000000	37.10702900000000	760.81381999999996	43.10881800000000	0.19452700000000	0.00000000000000	0.10327600000000	0.00000000000000	0.00000000000000	0.00000000000000	0.00000000000000	0.00000000000000	0.00000000000000	0.00000000000000	9.31948900000000	0.00000000000000	0.00000000000000	0.00000000000000	0.00000000000000	
15.09827900000000	36.41724200000000	759.50334699999996	43.09279600000000	0.19331300000000	0.00000000000000	0.10333400000000	0.00000000000000	0.00000000000000	0.00000000000000	0.00000000000000	0.00000000000000	0.00000000000000	0.00000000000000	9.36015400000000	0.00000000000000	0.00000000000000	0.00000000000000	0.00000000000000	
15.09994800000000	35.73233500000000	758.09378700000002	43.06798200000000	0.19209000000000	0.00000000000000	0.10339200000000	0.00000000000000	0.00000000000000	0.00000000000000	0.00000000000000	0.00000000000000	0.00000000000000	0.00000000000000	9.39780900000000	0.00000000000000	0.00000000000000	0.00000000000000	0.00000000000000	
15.10161400000000	35.05272600000000	756.59004200000004	43.03408800000000	0.19085900000000	0.00000000000000	0.10345000000000	0.00000000000000	0.00000000000000	0.00000000000000	0.00000000000000	0.00000000000000	0.00000000000000	0.00000000000000	9.43233500000000	0.00000000000000	0.00000000000000	0.00000000000000	0.00000000000000	
15.10329100000000	34.37883200000000	754.99711100000002	42.99086800000000	0.18962000000000	0.00000000000000	0.10350800000000	0.00000000000000	0.00000000000000	0.00000000000000	0.00000000000000	0.00000000000000	0.00000000000000	0.00000000000000	9.46363000000000	0.00000000000000	0.00000000000000	0.00000000000000	0.00000000000000	
15.10494400000000	33.71106900000000	753.32007999999996	42.93811700000000	0.18837600000000	0.00000000000000	0.10356600000000	0.00000000000000	0.00000000000000	0.00000000000000	0.00000000000000	0.00000000000000	0.00000000000000	0.00000000000000	9.49160400000000	0.00000000000000	0.00000000000000	0.00000000000000	0.00000000000000	
15.10661600000000	33.04984900000000	751.56410500000004	42.87567200000000	0.18712700000000	0.00000000000000	0.10362400000000	0.00000000000000	0.00000000000000	0.00000000000000	0.00000000000000	0.00000000000000	0.00000000000000	0.00000000000000	9.51618400000000	0.00000000000000	0.00000000000000	0.00000000000000	0.00000000000000	
15.10827900000000	32.39558300000000	749.73440400000004	42.80342000000000	0.18587400000000	0.00000000000000	0.10368100000000	0.00000000000000	0.00000000000000	0.00000000000000	0.00000000000000	0.00000000000000	0.00000000000000	0.00000000000000	9.53731400000000	0.00000000000000	0.00000000000000	0.00000000000000	0.00000000000000	
15.10994600000000	31.74867400000000	747.83623999999998	42.72129100000000	0.18461900000000	0.00000000000000	0.10373900000000	0.00000000000000	0.00000000000000	0.00000000000000	0.00000000000000	0.00000000000000	0.00000000000000	0.00000000000000	9.55495200000000	0.00000000000000	0.00000000000000	0.00000000000000	0.00000000000000	
15.11161500000000	31.10952000000000	745.87491100000000	42.62926500000000	0.18336300000000	0.00000000000000	0.10379500000000	0.00000000000000	0.00000000000000	0.00000000000000	0.00000000000000	0.00000000000000	0.00000000000000	0.00000000000000	9.56907300000000	0.00000000000000	0.00000000000000	0.00000000000000	0.00000000000000	
15.11329300000000	30.47851000000000	743.85573399999998	42.52737200000000	0.18210700000000	0.00000000000000	0.10385100000000	0.00000000000000	0.00000000000000	0.00000000000000	0.00000000000000	0.00000000000000	0.00000000000000	0.00000000000000	9.57966800000000	0.00000000000000	0.00000000000000	0.00000000000000	0.00000000000000	
15.11494500000000	29.85602300000000	741.78403900000001	42.41569000000000	0.18085400000000	0.00000000000000	0.10390700000000	0.00000000000000	0.00000000000000	0.00000000000000	0.00000000000000	0.00000000000000	0.00000000000000	0.00000000000000	9.58674300000000	0.00000000000000	0.00000000000000	0.00000000000000	0.00000000000000	
15.11661300000000	29.24242900000000	739.66514700000005	42.29434800000000	0.17960300000000	0.00000000000000	0.10396100000000	0.00000000000000	0.00000000000000	0.00000000000000	0.00000000000000	0.00000000000000	0.00000000000000	0.00000000000000	9.59032200000000	0.00000000000000	0.00000000000000	0.00000000000000	0.00000000000000	
15.11829200000000	28.63808200000000	737.50436600000000	42.16352100000000	0.17835800000000	0.00000000000000	0.10401500000000	0.00000000000000	0.00000000000000	0.00000000000000	0.00000000000000	0.00000000000000	0.00000000000000	0.00000000000000	9.59044000000000	0.00000000000000	0.00000000000000	0.00000000000000	0.00000000000000	
15.11994200000000	28.04332200000000	735.30697599999996	42.02343500000000	0.17711800000000	0.00000000000000	0.10406700000000	0.00000000000000	0.00000000000000	0.00000000000000	0.00000000000000	0.00000000000000	0.00000000000000	0.00000000000000	9.58715100000000	0.00000000000000	0.00000000000000	0.00000000000000	0.00000000000000	
15.12161200000000	27.45847300000000	733.07821400000000	41.87436400000000	0.17588600000000	0.00000000000000	0.10411800000000	0.00000000000000	0.00000000000000	0.00000000000000	0.00000000000000	0.00000000000000	0.00000000000000	0.00000000000000	9.58052000000000	0.00000000000000	0.00000000000000	0.00000000000000	0.00000000000000	
15.12327700000000	26.88384100000000	730.82326599999999	41.71662500000000	0.17466300000000	0.00000000000000	0.10416800000000	0.00000000000000	0.00000000000000	0.00000000000000	0.00000000000000	0.00000000000000	0.00000000000000	0.00000000000000	9.57062600000000	0.00000000000000	0.00000000000000	0.00000000000000	0.00000000000000	
15.12494600000000	26.31971000000000	728.54725800000006	41.55058300000000	0.17345000000000	0.00000000000000	0.10421700000000	0.00000000000000	0.00000000000000	0.00000000000000	0.00000000000000	0.00000000000000	0.00000000000000	0.00000000000000	9.55756100000000	0.00000000000000	0.00000000000000	0.00000000000000	0.00000000000000	
15.12661400000000	25.76634300000000	726.25523899999996	41.37664100000000	0.17224900000000	0.00000000000000	0.10426400000000	0.00000000000000	0.00000000000000	0.00000000000000	0.00000000000000	0.00000000000000	0.00000000000000	0.00000000000000	9.54143000000000	0.00000000000000	0.00000000000000	0.00000000000000	0.00000000000000	
15.12827900000000	25.22398000000000	723.95217400000001	41.19524600000000	0.17106100000000	0.00000000000000	0.10431000000000	0.00000000000000	0.00000000000000	0.00000000000000	0.00000000000000	0.00000000000000	0.00000000000000	0.00000000000000	9.52234600000000	0.00000000000000	0.00000000000000	0.00000000000000	0.00000000000000	
